<mxfile host="app.diagrams.net" modified="2022-12-19T13:25:35.477Z" agent="5.0 (Macintosh; Intel Mac OS X 10_15_7) AppleWebKit/537.36 (KHTML, like Gecko) Chrome/108.0.0.0 Safari/537.36" etag="uhsr5Pl2e7bmSSdxKAe0" version="20.7.4" type="github">
  <diagram id="Eh21r6j1GpaxF9dfcC4c" name="Page-1">
    <mxGraphModel dx="1193" dy="678" grid="1" gridSize="10" guides="1" tooltips="1" connect="1" arrows="1" fold="1" page="1" pageScale="1" pageWidth="827" pageHeight="1169" math="0" shadow="0">
      <root>
        <mxCell id="0" />
        <mxCell id="1" parent="0" />
        <mxCell id="1Bxg7u8tK1HFuSH5qVme-23" value="NO" style="edgeStyle=orthogonalEdgeStyle;rounded=0;orthogonalLoop=1;jettySize=auto;html=1;exitX=0.5;exitY=1;exitDx=0;exitDy=0;" parent="1" source="1Bxg7u8tK1HFuSH5qVme-1" target="1Bxg7u8tK1HFuSH5qVme-8" edge="1">
          <mxGeometry relative="1" as="geometry" />
        </mxCell>
        <mxCell id="1Bxg7u8tK1HFuSH5qVme-25" style="edgeStyle=orthogonalEdgeStyle;rounded=0;orthogonalLoop=1;jettySize=auto;html=1;" parent="1" source="1Bxg7u8tK1HFuSH5qVme-1" target="1Bxg7u8tK1HFuSH5qVme-24" edge="1">
          <mxGeometry relative="1" as="geometry" />
        </mxCell>
        <mxCell id="1Bxg7u8tK1HFuSH5qVme-26" value="YES" style="edgeLabel;html=1;align=center;verticalAlign=middle;resizable=0;points=[];" parent="1Bxg7u8tK1HFuSH5qVme-25" vertex="1" connectable="0">
          <mxGeometry x="0.2865" y="1" relative="1" as="geometry">
            <mxPoint as="offset" />
          </mxGeometry>
        </mxCell>
        <mxCell id="1Bxg7u8tK1HFuSH5qVme-1" value="ORDER 2" style="rounded=0;whiteSpace=wrap;html=1;" parent="1" vertex="1">
          <mxGeometry x="140" y="260" width="120" height="60" as="geometry" />
        </mxCell>
        <mxCell id="1Bxg7u8tK1HFuSH5qVme-16" value="YES" style="edgeStyle=orthogonalEdgeStyle;rounded=0;orthogonalLoop=1;jettySize=auto;html=1;entryX=0;entryY=0.5;entryDx=0;entryDy=0;" parent="1" source="1Bxg7u8tK1HFuSH5qVme-3" target="1Bxg7u8tK1HFuSH5qVme-4" edge="1">
          <mxGeometry relative="1" as="geometry" />
        </mxCell>
        <mxCell id="Ya_DZBLwZ3NsGKCcp1kg-3" style="edgeStyle=orthogonalEdgeStyle;rounded=0;orthogonalLoop=1;jettySize=auto;html=1;entryX=1;entryY=0.5;entryDx=0;entryDy=0;" edge="1" parent="1" source="1Bxg7u8tK1HFuSH5qVme-3" target="1Bxg7u8tK1HFuSH5qVme-1">
          <mxGeometry relative="1" as="geometry" />
        </mxCell>
        <mxCell id="Ya_DZBLwZ3NsGKCcp1kg-4" value="No" style="edgeLabel;html=1;align=center;verticalAlign=middle;resizable=0;points=[];" vertex="1" connectable="0" parent="Ya_DZBLwZ3NsGKCcp1kg-3">
          <mxGeometry x="0.1647" relative="1" as="geometry">
            <mxPoint as="offset" />
          </mxGeometry>
        </mxCell>
        <mxCell id="1Bxg7u8tK1HFuSH5qVme-3" value="&lt;meta charset=&quot;utf-8&quot;&gt;&lt;span style=&quot;color: rgb(0, 0, 0); font-family: Helvetica; font-size: 12px; font-style: normal; font-variant-ligatures: normal; font-variant-caps: normal; font-weight: 400; letter-spacing: normal; orphans: 2; text-align: center; text-indent: 0px; text-transform: none; widows: 2; word-spacing: 0px; -webkit-text-stroke-width: 0px; background-color: rgb(251, 251, 251); text-decoration-thickness: initial; text-decoration-style: initial; text-decoration-color: initial; float: none; display: inline !important;&quot;&gt;ORDER 3&lt;/span&gt;" style="whiteSpace=wrap;html=1;" parent="1" vertex="1">
          <mxGeometry x="370" y="200" width="120" height="60" as="geometry" />
        </mxCell>
        <mxCell id="1Bxg7u8tK1HFuSH5qVme-17" style="edgeStyle=orthogonalEdgeStyle;rounded=0;orthogonalLoop=1;jettySize=auto;html=1;" parent="1" source="1Bxg7u8tK1HFuSH5qVme-4" target="1Bxg7u8tK1HFuSH5qVme-9" edge="1">
          <mxGeometry relative="1" as="geometry" />
        </mxCell>
        <mxCell id="1Bxg7u8tK1HFuSH5qVme-18" value="YES" style="edgeLabel;html=1;align=center;verticalAlign=middle;resizable=0;points=[];" parent="1Bxg7u8tK1HFuSH5qVme-17" vertex="1" connectable="0">
          <mxGeometry x="0.0942" y="2" relative="1" as="geometry">
            <mxPoint as="offset" />
          </mxGeometry>
        </mxCell>
        <mxCell id="1Bxg7u8tK1HFuSH5qVme-20" style="edgeStyle=orthogonalEdgeStyle;rounded=0;orthogonalLoop=1;jettySize=auto;html=1;" parent="1" source="1Bxg7u8tK1HFuSH5qVme-4" target="1Bxg7u8tK1HFuSH5qVme-19" edge="1">
          <mxGeometry relative="1" as="geometry" />
        </mxCell>
        <mxCell id="1Bxg7u8tK1HFuSH5qVme-21" value="NO" style="edgeLabel;html=1;align=center;verticalAlign=middle;resizable=0;points=[];" parent="1Bxg7u8tK1HFuSH5qVme-20" vertex="1" connectable="0">
          <mxGeometry x="0.1696" relative="1" as="geometry">
            <mxPoint as="offset" />
          </mxGeometry>
        </mxCell>
        <mxCell id="1Bxg7u8tK1HFuSH5qVme-4" value="ORDER 4" style="rounded=0;whiteSpace=wrap;html=1;" parent="1" vertex="1">
          <mxGeometry x="620" y="260" width="120" height="60" as="geometry" />
        </mxCell>
        <mxCell id="1Bxg7u8tK1HFuSH5qVme-8" value="ORDER 1" style="rounded=0;whiteSpace=wrap;html=1;" parent="1" vertex="1">
          <mxGeometry x="30" y="420" width="120" height="60" as="geometry" />
        </mxCell>
        <mxCell id="1Bxg7u8tK1HFuSH5qVme-9" value="ORDER 5" style="rounded=0;whiteSpace=wrap;html=1;" parent="1" vertex="1">
          <mxGeometry x="717" y="420" width="103" height="60" as="geometry" />
        </mxCell>
        <mxCell id="1Bxg7u8tK1HFuSH5qVme-27" style="edgeStyle=orthogonalEdgeStyle;rounded=0;orthogonalLoop=1;jettySize=auto;html=1;entryX=0.5;entryY=0;entryDx=0;entryDy=0;" parent="1" source="1Bxg7u8tK1HFuSH5qVme-12" target="1Bxg7u8tK1HFuSH5qVme-3" edge="1">
          <mxGeometry relative="1" as="geometry" />
        </mxCell>
        <mxCell id="1Bxg7u8tK1HFuSH5qVme-12" value="Online QUESS" style="rounded=1;whiteSpace=wrap;html=1;" parent="1" vertex="1">
          <mxGeometry x="370" y="100" width="120" height="40" as="geometry" />
        </mxCell>
        <mxCell id="Ya_DZBLwZ3NsGKCcp1kg-6" style="edgeStyle=orthogonalEdgeStyle;rounded=0;orthogonalLoop=1;jettySize=auto;html=1;entryX=1;entryY=0.75;entryDx=0;entryDy=0;" edge="1" parent="1" source="1Bxg7u8tK1HFuSH5qVme-19" target="1Bxg7u8tK1HFuSH5qVme-1">
          <mxGeometry relative="1" as="geometry" />
        </mxCell>
        <mxCell id="Ya_DZBLwZ3NsGKCcp1kg-7" value="No" style="edgeLabel;html=1;align=center;verticalAlign=middle;resizable=0;points=[];" vertex="1" connectable="0" parent="Ya_DZBLwZ3NsGKCcp1kg-6">
          <mxGeometry x="0.1221" relative="1" as="geometry">
            <mxPoint as="offset" />
          </mxGeometry>
        </mxCell>
        <mxCell id="1Bxg7u8tK1HFuSH5qVme-19" value="ORDER 3" style="rounded=0;whiteSpace=wrap;html=1;" parent="1" vertex="1">
          <mxGeometry x="500" y="420" width="150" height="60" as="geometry" />
        </mxCell>
        <mxCell id="1Bxg7u8tK1HFuSH5qVme-24" value="ORDER 3" style="rounded=0;whiteSpace=wrap;html=1;" parent="1" vertex="1">
          <mxGeometry x="230" y="420" width="120" height="60" as="geometry" />
        </mxCell>
      </root>
    </mxGraphModel>
  </diagram>
</mxfile>
